<svg xmlns="http://www.w3.org/2000/svg" viewBox="0 0 64 64" width="64" height="64">
  <rect width="64" height="64" rx="14" fill="#0A1017"/>
  <path
    d="M32 5 L50 12 V29 C50 42.5 42.5 51.5 32 57 C21.5 51.5 14 42.5 14 29 V12 Z"
    fill="none" stroke="#22D3A0" stroke-width="3" stroke-linejoin="round" stroke-linecap="round"/>
  <path
    d="M32 16 C36 16 39.2 19.1 39.2 23 C39.2 28 32 36.5 32 36.5 C32 36.5 24.8 28 24.8 23 C24.8 19.1 28 16 32 16 Z"
    fill="none" stroke="#22D3A0" stroke-width="2.6" stroke-linejoin="round" stroke-linecap="round"/>
  <circle cx="32" cy="23" r="2.6" fill="#22D3A0"/>
  <path
    d="M24 47 C24 41.5 27.5 38 32 38 C36.5 38 40 41.5 40 47"
    fill="none" stroke="#22D3A0" stroke-width="2.6" stroke-linecap="round"/>
</svg>
